<?xml version="1.0" encoding="iso-8859-1"?>
<!-- Generator: Adobe Illustrator 19.0.0, SVG Export Plug-In . SVG Version: 6.00 Build 0)  -->
<svg xmlns="http://www.w3.org/2000/svg" xmlns:xlink="http://www.w3.org/1999/xlink" version="1.1" id="Layer_1" x="0px" y="0px" viewBox="0 0 346.484 346.484" style="enable-background:new 0 0 346.484 346.484;" xml:space="preserve" width="512" height="512">
<g>
	<g>
		<path style="fill:#2B8A9A;" d="M91.837,173.722H62.163c-7.547,0-13.92,5.678-13.92,13.225v88.775h57v-88.775    C105.242,179.4,99.384,173.722,91.837,173.722z"/>
		<path style="fill:#F8B242;" d="M190.832,125.722h-29.674c-7.547,0-13.916,6.224-13.916,13.771v136.229h57V139.493    C204.242,131.946,198.379,125.722,190.832,125.722z"/>
		<path style="fill:#D09838;" d="M175.745,125.722h-14.587c-7.547,0-13.916,6.224-13.916,13.771v136.229h28.5L175.745,125.722z"/>
		<path style="fill:#E45527;" d="M289.827,55.722h-29.675c-7.547,0-13.91,6.079-13.91,13.626v206.374h57V69.349    C303.242,61.801,297.374,55.722,289.827,55.722z"/>
	</g>
	<path style="fill:#C4C8C4;" d="M331.484,290.762H15c-8.284,0-15-6.716-15-15s6.716-15,15-15h316.484c8.284,0,15,6.716,15,15   S339.769,290.762,331.484,290.762z"/>
	<path style="fill:#A5A9A6;" d="M175.741,290.762H15c-8.284,0-15-6.716-15-15s6.716-15,15-15h160.741V290.762z"/>
</g>















</svg>
